<svg version="1.2" xmlns="http://www.w3.org/2000/svg" viewBox="0 0 2880 1620" width="1080" height="608">
	<title>Path 3</title>
	<defs>
		<clipPath clipPathUnits="userSpaceOnUse" id="cp1">
			<path d="m335.1 910.91v64.1h-334.83v-64.1z"/>
		</clipPath>
		<clipPath clipPathUnits="userSpaceOnUse" id="cp2">
			<path d="m335.1 821.79v64.1h-334.83v-64.1z"/>
		</clipPath>
		<clipPath clipPathUnits="userSpaceOnUse" id="cp3">
			<path d="m335.1 732.79v64.1h-334.83v-64.1z"/>
		</clipPath>
		<clipPath clipPathUnits="userSpaceOnUse" id="cp4">
			<path d="m479.04 731.2v64.1h-478.77v-64.1z"/>
		</clipPath>
		<clipPath clipPathUnits="userSpaceOnUse" id="cp5">
			<path d="m479.04 642.08v64.1h-478.77v-64.1z"/>
		</clipPath>
		<clipPath clipPathUnits="userSpaceOnUse" id="cp6">
			<path d="m479.04 553.08v64.1h-478.77v-64.1z"/>
		</clipPath>
		<clipPath clipPathUnits="userSpaceOnUse" id="cp7">
			<path d="m328.38 555.84v64.09h-328.11v-64.09z"/>
		</clipPath>
		<clipPath clipPathUnits="userSpaceOnUse" id="cp8">
			<path d="m328.38 466.72v64.1h-328.11v-64.1z"/>
		</clipPath>
		<clipPath clipPathUnits="userSpaceOnUse" id="cp9">
			<path d="m328.38 377.72v64.1h-328.11v-64.1z"/>
		</clipPath>
		<clipPath clipPathUnits="userSpaceOnUse" id="cp10">
			<path d="m2734.96 1182v64.1h-346.65v-64.1z"/>
		</clipPath>
		<clipPath clipPathUnits="userSpaceOnUse" id="cp11">
			<path d="m2734.96 1271.12v64.09h-346.65v-64.09z"/>
		</clipPath>
		<clipPath clipPathUnits="userSpaceOnUse" id="cp12">
			<path d="m2734.96 1360.12v64.09h-346.65v-64.09z"/>
		</clipPath>
		<clipPath clipPathUnits="userSpaceOnUse" id="cp13">
			<path d="m2734.96 1359.81v64.09h-493.53v-64.09z"/>
		</clipPath>
		<clipPath clipPathUnits="userSpaceOnUse" id="cp14">
			<path d="m2734.96 1448.92v64.1h-493.53v-64.1z"/>
		</clipPath>
		<clipPath clipPathUnits="userSpaceOnUse" id="cp15">
			<path d="m2734.96 1537.93v64.09h-493.53v-64.09z"/>
		</clipPath>
	</defs>
	<style>
		.s0 { fill: #489cfc } 
		.s1 { fill: #ffde59 } 
	</style>
	<g id="Folder 1">
		<g id="Mask" clip-path="url(#cp1)">
			<path id="Path 3" class="s0" d="m-179.9 937.4c12.4 0 18.4 6.2 26.6 14.7l0.2 0.2c9.9 10.1 22 22.7 45.6 22.7 23.9 0 36-12.7 45.9-22.9 8.2-8.5 14.2-14.7 26.6-14.7 12.5 0 18.5 6.2 26.7 14.7l0.3 0.3c9.7 10 21.8 22.5 45.2 22.5 23.8 0 36-12.7 45.7-22.8l0.1-0.1c8.2-8.5 14.2-14.7 26.7-14.7 12.4 0 18.4 6.2 26.6 14.7l0.3 0.3c9.7 10 21.9 22.6 45.5 22.6 23.8 0 36-12.7 45.7-22.8l0.1-0.1c8.3-8.5 14.2-14.7 26.7-14.7 12.5 0 18.4 6.2 26.7 14.7l0.2 0.2c9.8 10.1 22 22.7 45.6 22.7h6.1v-26.3h-6.1c-12.5 0-18.5-6.2-26.7-14.7l-0.3-0.4c-9.7-10-21.9-22.6-45.5-22.6-23.8 0-36 12.7-45.7 22.9l-0.1 0.1c-8.2 8.5-14.2 14.7-26.7 14.7-12.4 0-18.4-6.2-26.6-14.7l-0.2-0.2c-9.9-10.2-22-22.8-45.6-22.8-23.9 0-36 12.7-45.8 22.9l-0.1 0.1c-8.2 8.5-14.1 14.7-26.6 14.7-12.6 0-18.5-6.2-26.6-14.7-9.7-10.2-21.9-22.9-45.7-22.9-23.8 0-36 12.7-45.7 22.9l-0.1 0.1c-8.2 8.5-14.2 14.7-26.7 14.7-12.4 0-18.4-6.2-26.6-14.7l-0.2-0.2c-9.8-10.2-22-22.8-45.5-22.8h-6.1v26.4z"/>
		</g>
		<g id="Mask" clip-path="url(#cp2)">
			<path id="Path 6" class="s1" d="m-179.9 848.3c12.4 0 18.4 6.2 26.6 14.7l0.2 0.2c9.9 10.1 22 22.7 45.6 22.7 23.9 0 36-12.7 45.9-22.9 8.2-8.5 14.2-14.7 26.6-14.7 12.5 0 18.5 6.2 26.7 14.7l0.3 0.3c9.7 10 21.8 22.5 45.2 22.5 23.8 0 36-12.7 45.7-22.8l0.1-0.1c8.2-8.5 14.2-14.7 26.7-14.7 12.4 0 18.4 6.2 26.6 14.7l0.3 0.3c9.7 10 21.9 22.6 45.5 22.6 23.8 0 36-12.7 45.7-22.8l0.1-0.1c8.3-8.5 14.2-14.7 26.7-14.7 12.5 0 18.4 6.2 26.7 14.7l0.2 0.2c9.8 10.1 22 22.7 45.6 22.7h6.1v-26.4h-6.1c-12.5 0-18.5-6.1-26.7-14.7l-0.3-0.3c-9.7-10-21.9-22.6-45.5-22.6-23.8 0-36 12.7-45.7 22.8l-0.1 0.1c-8.2 8.6-14.2 14.7-26.7 14.7-12.4 0-18.4-6.1-26.6-14.7l-0.2-0.2c-9.9-10.1-22-22.7-45.6-22.7-23.9 0-36 12.7-45.8 22.8l-0.1 0.1c-8.2 8.6-14.1 14.7-26.6 14.7-12.6 0-18.5-6.1-26.6-14.7-9.7-10.1-21.9-22.8-45.7-22.8-23.8 0-36 12.7-45.7 22.8l-0.1 0.1c-8.2 8.6-14.2 14.7-26.7 14.7-12.4 0-18.4-6.1-26.6-14.7l-0.2-0.2c-9.8-10.1-22-22.7-45.5-22.7h-6.1v26.4z"/>
		</g>
		<g id="Mask" clip-path="url(#cp3)">
			<path id="Path 9" class="s0" d="m-179.9 759.3c12.4 0 18.4 6.2 26.6 14.7l0.2 0.2c9.9 10.1 22 22.7 45.6 22.7 23.9 0 36-12.7 45.9-22.9 8.2-8.5 14.2-14.7 26.6-14.7 12.5 0 18.5 6.2 26.7 14.7l0.3 0.3c9.7 10 21.8 22.5 45.2 22.5 23.8 0 36-12.7 45.7-22.8l0.1-0.1c8.2-8.5 14.2-14.7 26.7-14.7 12.4 0 18.4 6.2 26.6 14.7l0.3 0.3c9.7 10 21.9 22.6 45.5 22.6 23.8 0 36-12.7 45.7-22.8l0.1-0.1c8.3-8.5 14.2-14.7 26.7-14.7 12.5 0 18.4 6.2 26.7 14.7l0.2 0.2c9.8 10.1 22 22.7 45.6 22.7h6.1v-26.4h-6.1c-12.5 0-18.5-6.2-26.7-14.7l-0.3-0.3c-9.7-10-21.9-22.6-45.5-22.6-23.8 0-36 12.7-45.7 22.8l-0.1 0.1c-8.2 8.5-14.2 14.7-26.7 14.7-12.4 0-18.4-6.2-26.6-14.7l-0.2-0.2c-9.9-10.1-22-22.7-45.6-22.7-23.9 0-36 12.7-45.8 22.8l-0.1 0.1c-8.2 8.5-14.1 14.7-26.6 14.7-12.6 0-18.5-6.2-26.6-14.7-9.7-10.1-21.9-22.8-45.7-22.8-23.8 0-36 12.7-45.7 22.8l-0.1 0.1c-8.2 8.6-14.2 14.7-26.7 14.7-12.4 0-18.4-6.1-26.6-14.7l-0.2-0.2c-9.8-10.1-22-22.7-45.5-22.7h-6.1v26.4z"/>
		</g>
		<g id="Mask" clip-path="url(#cp4)">
			<path id="Path 12" class="s0" d="m-36 757.7c12.5 0 18.5 6.2 26.7 14.7l0.2 0.2c9.8 10.1 22 22.7 45.6 22.7 23.8 0 36-12.7 45.8-22.9 8.2-8.5 14.2-14.7 26.7-14.7 12.4 0 18.4 6.2 26.6 14.7l0.3 0.3c9.7 10 21.8 22.5 45.2 22.5 23.8 0 36-12.7 45.7-22.8l0.1-0.1c8.2-8.5 14.2-14.7 26.7-14.7 12.5 0 18.4 6.2 26.7 14.7l0.3 0.3c9.7 10 21.8 22.6 45.5 22.6 23.8 0 35.9-12.7 45.7-22.8l0.1-0.1c8.2-8.5 14.2-14.7 26.6-14.7 12.5 0 18.5 6.2 26.7 14.7l0.2 0.2c9.8 10.1 22 22.7 45.6 22.7h6.1v-26.4h-6.1c-12.5 0-18.4-6.1-26.6-14.7l-0.4-0.3c-9.7-10-21.8-22.6-45.5-22.6-23.8 0-35.9 12.7-45.7 22.8l-0.1 0.1c-8.2 8.6-14.2 14.7-26.6 14.7-12.5 0-18.5-6.1-26.7-14.7l-0.2-0.2c-9.8-10.1-22-22.7-45.6-22.7-23.8 0-36 12.7-45.7 22.8l-0.1 0.1c-8.2 8.6-14.2 14.7-26.7 14.7-12.5 0-18.4-6.1-26.5-14.7-9.8-10.1-21.9-22.8-45.7-22.8-23.9 0-36 12.7-45.8 22.8l-0.1 0.1c-8.2 8.6-14.1 14.7-26.6 14.7-12.5 0-18.5-6.1-26.7-14.7l-0.2-0.2c-9.8-10.1-22-22.7-45.5-22.7h-6.1v26.4z"/>
		</g>
		<g id="Mask" clip-path="url(#cp5)">
			<path id="Path 15" class="s1" d="m-36 668.6c12.5 0 18.5 6.2 26.7 14.7l0.2 0.2c9.8 10.1 22 22.7 45.6 22.7 23.8 0 36-12.7 45.8-22.9 8.2-8.5 14.2-14.7 26.7-14.7 12.4 0 18.4 6.2 26.6 14.7l0.3 0.3c9.7 10 21.8 22.5 45.2 22.5 23.8 0 36-12.7 45.7-22.8l0.1-0.1c8.2-8.5 14.2-14.7 26.7-14.7 12.5 0 18.4 6.2 26.7 14.7l0.3 0.3c9.7 10 21.8 22.6 45.5 22.6 23.8 0 35.9-12.7 45.7-22.8l0.1-0.1c8.2-8.5 14.2-14.7 26.6-14.7 12.5 0 18.5 6.2 26.7 14.7l0.2 0.2c9.8 10.1 22 22.7 45.6 22.7h6.1v-26.4h-6.1c-12.5 0-18.4-6.2-26.6-14.7l-0.4-0.3c-9.7-10-21.8-22.6-45.5-22.6-23.8 0-35.9 12.7-45.7 22.8l-0.1 0.1c-8.2 8.5-14.2 14.7-26.6 14.7-12.5 0-18.5-6.2-26.7-14.7l-0.2-0.2c-9.8-10.1-22-22.7-45.6-22.7-23.8 0-36 12.7-45.7 22.8l-0.1 0.1c-8.2 8.5-14.2 14.7-26.7 14.7-12.5 0-18.4-6.2-26.5-14.7-9.8-10.1-21.9-22.8-45.7-22.8-23.9 0-36 12.7-45.8 22.8l-0.1 0.1c-8.2 8.5-14.1 14.7-26.6 14.7-12.5 0-18.5-6.2-26.7-14.7l-0.2-0.2c-9.8-10.1-22-22.7-45.5-22.7h-6.1v26.4z"/>
		</g>
		<g id="Mask" clip-path="url(#cp6)">
			<path id="Path 18" class="s0" d="m-36 579.6c12.5 0 18.5 6.2 26.7 14.7l0.2 0.2c9.8 10.1 22 22.7 45.6 22.7 23.8 0 36-12.7 45.8-22.9 8.2-8.5 14.2-14.7 26.7-14.7 12.4 0 18.4 6.2 26.6 14.7l0.3 0.3c9.7 10 21.8 22.5 45.2 22.5 23.8 0 36-12.7 45.7-22.8l0.1-0.1c8.2-8.5 14.2-14.7 26.7-14.7 12.5 0 18.4 6.2 26.7 14.7l0.3 0.3c9.7 10 21.8 22.6 45.5 22.6 23.8 0 35.9-12.7 45.7-22.8l0.1-0.1c8.2-8.5 14.2-14.7 26.6-14.7 12.5 0 18.5 6.2 26.7 14.7l0.2 0.2c9.8 10.1 22 22.7 45.6 22.7h6.1v-26.4h-6.1c-12.5 0-18.4-6.2-26.6-14.7l-0.4-0.3c-9.7-10-21.8-22.6-45.5-22.6-23.8 0-35.9 12.7-45.7 22.8l-0.1 0.1c-8.2 8.5-14.2 14.7-26.6 14.7-12.5 0-18.5-6.2-26.7-14.7l-0.2-0.2c-9.8-10.1-22-22.7-45.6-22.7-23.8 0-36 12.7-45.7 22.8l-0.1 0.1c-8.2 8.5-14.2 14.7-26.7 14.7-12.5 0-18.4-6.2-26.5-14.7-9.8-10.1-21.9-22.8-45.7-22.8-23.9 0-36 12.7-45.8 22.8l-0.1 0.1c-8.2 8.5-14.1 14.7-26.6 14.7-12.5 0-18.5-6.2-26.7-14.7l-0.2-0.2c-9.8-10.1-22-22.7-45.5-22.7h-6.1v26.4z"/>
		</g>
		<path id="Path 21" class="s0" d="m392.3 582.3c12.4 0 18.4 6.2 26.6 14.7l0.2 0.2c9.8 10.2 22 22.7 45.6 22.7 23.8 0 36-12.6 45.8-22.9 8.2-8.5 14.2-14.7 26.7-14.7 12.5 0 18.4 6.2 26.7 14.7l0.3 0.3c9.7 10.1 21.7 22.5 45.2 22.5 23.8 0 35.9-12.6 45.7-22.8l0.1-0.1c8.2-8.5 14.2-14.7 26.6-14.7 12.5 0 18.5 6.2 26.7 14.7l0.3 0.3c9.7 10.1 21.9 22.6 45.5 22.6 23.8 0 36-12.6 45.7-22.8l0.1-0.1c8.2-8.5 14.2-14.7 26.7-14.7 12.4 0 18.4 6.2 26.6 14.7l0.2 0.2c9.9 10.2 22 22.7 45.6 22.7h6.1v-26.3h-6.1c-12.4 0-18.4-6.2-26.6-14.7l-0.3-0.3c-9.7-10.1-21.9-22.6-45.5-22.6-23.8 0-36 12.6-45.7 22.8l-0.1 0.1c-8.3 8.5-14.2 14.7-26.7 14.7-12.5 0-18.4-6.2-26.7-14.7l-0.2-0.2c-9.8-10.2-22-22.7-45.6-22.7-23.8 0-36 12.6-45.7 22.8l-0.1 0.1c-8.2 8.5-14.2 14.7-26.6 14.7-12.6 0-18.5-6.2-26.6-14.7-9.7-10.2-21.9-22.8-45.7-22.8-23.8 0-36 12.6-45.7 22.8l-0.1 0.1c-8.2 8.5-14.2 14.7-26.7 14.7-12.4 0-18.4-6.2-26.6-14.7l-0.2-0.2c-9.9-10.2-22-22.7-45.5-22.7h-6.1v26.3z"/>
		<path id="Path 22" class="s1" d="m392.3 493.2c12.4 0 18.4 6.2 26.6 14.7l0.2 0.2c9.8 10.1 22 22.7 45.6 22.7 23.8 0 36-12.7 45.8-22.9 8.2-8.5 14.2-14.7 26.7-14.7 12.5 0 18.4 6.2 26.7 14.7l0.3 0.3c9.7 10 21.7 22.5 45.2 22.5 23.8 0 35.9-12.7 45.7-22.8l0.1-0.1c8.2-8.5 14.2-14.7 26.6-14.7 12.5 0 18.5 6.2 26.7 14.7l0.3 0.3c9.7 10 21.9 22.6 45.5 22.6 23.8 0 36-12.7 45.7-22.8l0.1-0.1c8.2-8.5 14.2-14.7 26.7-14.7 12.4 0 18.4 6.2 26.6 14.7l0.2 0.2c9.9 10.1 22 22.7 45.6 22.7h6.1v-26.3h-6.1c-12.4 0-18.4-6.2-26.6-14.7l-0.3-0.3c-9.7-10.1-21.9-22.6-45.5-22.6-23.8 0-36 12.6-45.7 22.8l-0.1 0.1c-8.3 8.5-14.2 14.7-26.7 14.7-12.5 0-18.4-6.2-26.7-14.7l-0.2-0.2c-9.8-10.2-22-22.7-45.6-22.7-23.8 0-36 12.6-45.7 22.8l-0.1 0.1c-8.2 8.5-14.2 14.7-26.6 14.7-12.6 0-18.5-6.2-26.6-14.7-9.7-10.2-21.9-22.8-45.7-22.8-23.8 0-36 12.6-45.7 22.8l-0.1 0.1c-8.2 8.5-14.2 14.7-26.7 14.7-12.4 0-18.4-6.2-26.6-14.7l-0.2-0.2c-9.9-10.2-22-22.7-45.5-22.7h-6.1v26.3z"/>
		<path id="Path 23" class="s0" d="m392.3 404.2c12.4 0 18.4 6.2 26.6 14.7l0.2 0.2c9.8 10.1 22 22.7 45.6 22.7 23.8 0 36-12.7 45.8-22.9 8.2-8.5 14.2-14.7 26.7-14.7 12.5 0 18.4 6.2 26.7 14.7l0.3 0.3c9.7 10 21.7 22.5 45.2 22.5 23.8 0 35.9-12.7 45.7-22.8l0.1-0.1c8.2-8.5 14.2-14.7 26.6-14.7 12.5 0 18.5 6.2 26.7 14.7l0.3 0.3c9.7 10 21.9 22.6 45.5 22.6 23.8 0 36-12.7 45.7-22.8l0.1-0.1c8.2-8.5 14.2-14.7 26.7-14.7 12.4 0 18.4 6.2 26.6 14.7l0.2 0.2c9.9 10.1 22 22.7 45.6 22.7h6.1v-26.3h-6.1c-12.4 0-18.4-6.2-26.6-14.7l-0.3-0.3c-9.7-10.1-21.9-22.6-45.5-22.6-23.8 0-36 12.6-45.7 22.8l-0.1 0.1c-8.3 8.5-14.2 14.7-26.7 14.7-12.5 0-18.4-6.2-26.7-14.7l-0.2-0.2c-9.8-10.2-22-22.7-45.6-22.7-23.8 0-36 12.6-45.7 22.8l-0.1 0.1c-8.2 8.5-14.2 14.7-26.6 14.7-12.6 0-18.5-6.2-26.6-14.7-9.7-10.2-21.9-22.8-45.7-22.8-23.8 0-36 12.6-45.7 22.8l-0.1 0.1c-8.2 8.5-14.2 14.7-26.7 14.7-12.4 0-18.4-6.2-26.6-14.7l-0.2-0.2c-9.9-10.2-22-22.7-45.5-22.7h-6.1v26.3z"/>
		<path id="Path 24" class="s0" d="m248.2 582.3c12.5 0 18.4 6.2 26.7 14.7l0.2 0.2c9.8 10.2 22 22.7 45.6 22.7 23.8 0 35.9-12.6 45.8-22.9 8.2-8.5 14.2-14.7 26.6-14.7 12.5 0 18.5 6.2 26.7 14.7l0.3 0.3c9.7 10.1 21.8 22.5 45.2 22.5 23.8 0 36-12.6 45.7-22.8l0.1-0.1c8.2-8.5 14.2-14.7 26.7-14.7 12.4 0 18.4 6.2 26.6 14.7l0.3 0.3c9.8 10.1 21.9 22.6 45.5 22.6 23.9 0 36-12.6 45.8-22.8l0.1-0.1c8.2-8.5 14.2-14.7 26.6-14.7 12.5 0 18.5 6.2 26.7 14.7l0.2 0.2c9.8 10.2 22 22.7 45.6 22.7h6.1v-26.3h-6.1c-12.5 0-18.5-6.2-26.7-14.7l-0.3-0.3c-9.7-10.1-21.9-22.6-45.5-22.6-23.8 0-36 12.6-45.7 22.8l-0.1 0.1c-8.2 8.5-14.2 14.7-26.7 14.7-12.4 0-18.4-6.2-26.6-14.7l-0.2-0.2c-9.8-10.2-22-22.7-45.6-22.7-23.8 0-36 12.6-45.7 22.8l-0.1 0.1c-8.2 8.5-14.2 14.7-26.7 14.7-12.6 0-18.4-6.2-26.6-14.7-9.7-10.2-21.8-22.8-45.7-22.8-23.8 0-35.9 12.6-45.7 22.8l-0.1 0.1c-8.2 8.5-14.2 14.7-26.6 14.7-12.5 0-18.5-6.2-26.7-14.7l-0.2-0.2c-9.8-10.2-22-22.7-45.5-22.7h-6.1v26.3z"/>
		<path id="Path 25" class="s1" d="m248.2 493.2c12.5 0 18.4 6.2 26.7 14.7l0.2 0.2c9.8 10.1 22 22.7 45.6 22.7 23.8 0 35.9-12.7 45.8-22.9 8.2-8.5 14.2-14.7 26.6-14.7 12.5 0 18.5 6.2 26.7 14.7l0.3 0.3c9.7 10 21.8 22.5 45.2 22.5 23.8 0 36-12.7 45.7-22.8l0.1-0.1c8.2-8.5 14.2-14.7 26.7-14.7 12.4 0 18.4 6.2 26.6 14.7l0.3 0.3c9.8 10 21.9 22.6 45.5 22.6 23.9 0 36-12.7 45.8-22.8l0.1-0.1c8.2-8.5 14.2-14.7 26.6-14.7 12.5 0 18.5 6.2 26.7 14.7l0.2 0.2c9.8 10.1 22 22.7 45.6 22.7h6.1v-26.3h-6.1c-12.5 0-18.5-6.2-26.7-14.7l-0.3-0.3c-9.7-10.1-21.9-22.6-45.5-22.6-23.8 0-36 12.6-45.7 22.8l-0.1 0.1c-8.2 8.5-14.2 14.7-26.7 14.7-12.4 0-18.4-6.2-26.6-14.7l-0.2-0.2c-9.8-10.2-22-22.7-45.6-22.7-23.8 0-36 12.6-45.7 22.8l-0.1 0.1c-8.2 8.5-14.2 14.7-26.7 14.7-12.6 0-18.4-6.2-26.6-14.7-9.7-10.2-21.8-22.8-45.7-22.8-23.8 0-35.9 12.6-45.7 22.8l-0.1 0.1c-8.2 8.5-14.2 14.7-26.6 14.7-12.5 0-18.5-6.2-26.7-14.7l-0.2-0.2c-9.8-10.2-22-22.7-45.5-22.7h-6.1v26.3z"/>
		<path id="Path 26" class="s0" d="m248.2 404.2c12.5 0 18.4 6.2 26.7 14.7l0.2 0.2c9.8 10.1 22 22.7 45.6 22.7 23.8 0 35.9-12.7 45.8-22.9 8.2-8.5 14.2-14.7 26.6-14.7 12.5 0 18.5 6.2 26.7 14.7l0.3 0.3c9.7 10 21.8 22.5 45.2 22.5 23.8 0 36-12.7 45.7-22.8l0.1-0.1c8.2-8.5 14.2-14.7 26.7-14.7 12.4 0 18.4 6.2 26.6 14.7l0.3 0.3c9.8 10 21.9 22.6 45.5 22.6 23.9 0 36-12.7 45.8-22.8l0.1-0.1c8.2-8.5 14.2-14.7 26.6-14.7 12.5 0 18.5 6.2 26.7 14.7l0.2 0.2c9.8 10.1 22 22.7 45.6 22.7h6.1v-26.3h-6.1c-12.5 0-18.5-6.2-26.7-14.7l-0.3-0.3c-9.7-10.1-21.9-22.6-45.5-22.6-23.8 0-36 12.6-45.7 22.8l-0.1 0.1c-8.2 8.5-14.2 14.7-26.7 14.7-12.4 0-18.4-6.2-26.6-14.7l-0.2-0.2c-9.8-10.2-22-22.7-45.6-22.7-23.8 0-36 12.6-45.7 22.8l-0.1 0.1c-8.2 8.5-14.2 14.7-26.7 14.7-12.6 0-18.4-6.2-26.6-14.7-9.7-10.2-21.8-22.8-45.7-22.8-23.8 0-35.9 12.6-45.7 22.8l-0.1 0.1c-8.2 8.5-14.2 14.7-26.6 14.7-12.5 0-18.5-6.2-26.7-14.7l-0.2-0.2c-9.8-10.2-22-22.7-45.5-22.7h-6.1v26.3z"/>
		<g id="Mask" clip-path="url(#cp7)">
			<path id="Path 27" class="s0" d="m-186.6 582.3c12.4 0 18.4 6.2 26.6 14.7l0.2 0.2c9.8 10.2 22 22.7 45.6 22.7 23.8 0 36-12.6 45.8-22.9 8.2-8.5 14.2-14.7 26.7-14.7 12.5 0 18.4 6.2 26.7 14.7l0.3 0.3c9.7 10.1 21.7 22.5 45.2 22.5 23.8 0 35.9-12.6 45.7-22.8l0.1-0.1c8.2-8.5 14.2-14.7 26.6-14.7 12.5 0 18.5 6.2 26.7 14.7l0.3 0.3c9.7 10.1 21.9 22.6 45.5 22.6 23.8 0 36-12.6 45.7-22.8l0.1-0.1c8.2-8.5 14.2-14.7 26.7-14.7 12.4 0 18.4 6.2 26.6 14.7l0.2 0.2c9.9 10.2 22 22.7 45.6 22.7h6.1v-26.3h-6.1c-12.4 0-18.4-6.2-26.6-14.7l-0.3-0.3c-9.7-10.1-21.9-22.6-45.5-22.6-23.8 0-36 12.6-45.7 22.8l-0.1 0.1c-8.2 8.5-14.2 14.7-26.7 14.7-12.5 0-18.4-6.2-26.7-14.7l-0.2-0.2c-9.8-10.2-22-22.7-45.6-22.7-23.8 0-35.9 12.6-45.7 22.8l-0.1 0.1c-8.2 8.5-14.2 14.7-26.6 14.7-12.6 0-18.5-6.2-26.6-14.7-9.7-10.2-21.9-22.8-45.7-22.8-23.8 0-36 12.6-45.7 22.8l-0.1 0.1c-8.2 8.5-14.2 14.7-26.7 14.7-12.4 0-18.4-6.2-26.6-14.7l-0.2-0.2c-9.9-10.2-22-22.7-45.5-22.7h-6.1v26.3z"/>
		</g>
		<g id="Mask" clip-path="url(#cp8)">
			<path id="Path 30" class="s1" d="m-186.6 493.2c12.4 0 18.4 6.2 26.6 14.7l0.2 0.2c9.8 10.1 22 22.7 45.6 22.7 23.8 0 36-12.7 45.8-22.9 8.2-8.5 14.2-14.7 26.7-14.7 12.5 0 18.4 6.2 26.7 14.7l0.3 0.3c9.7 10 21.7 22.5 45.2 22.5 23.8 0 35.9-12.7 45.7-22.8l0.1-0.1c8.2-8.5 14.2-14.7 26.6-14.7 12.5 0 18.5 6.2 26.7 14.7l0.3 0.3c9.7 10 21.9 22.6 45.5 22.6 23.8 0 36-12.7 45.7-22.8l0.1-0.1c8.2-8.5 14.2-14.7 26.7-14.7 12.4 0 18.4 6.2 26.6 14.7l0.2 0.2c9.9 10.1 22 22.7 45.6 22.7h6.1v-26.3h-6.1c-12.4 0-18.4-6.2-26.6-14.7l-0.3-0.3c-9.7-10.1-21.9-22.6-45.5-22.6-23.8 0-36 12.6-45.7 22.8l-0.1 0.1c-8.2 8.5-14.2 14.7-26.7 14.7-12.5 0-18.4-6.2-26.7-14.7l-0.2-0.2c-9.8-10.2-22-22.7-45.6-22.7-23.8 0-35.9 12.6-45.7 22.8l-0.1 0.1c-8.2 8.5-14.2 14.7-26.6 14.7-12.6 0-18.5-6.2-26.6-14.7-9.7-10.2-21.9-22.8-45.7-22.8-23.8 0-36 12.6-45.7 22.8l-0.1 0.1c-8.2 8.5-14.2 14.7-26.7 14.7-12.4 0-18.4-6.2-26.6-14.7l-0.2-0.2c-9.9-10.2-22-22.7-45.5-22.7h-6.1v26.3z"/>
		</g>
		<g id="Mask" clip-path="url(#cp9)">
			<path id="Path 33" class="s0" d="m-186.6 404.2c12.4 0 18.4 6.2 26.6 14.7l0.2 0.2c9.8 10.1 22 22.7 45.6 22.7 23.8 0 36-12.7 45.8-22.9 8.2-8.5 14.2-14.7 26.7-14.7 12.5 0 18.4 6.2 26.7 14.7l0.3 0.3c9.7 10 21.7 22.5 45.2 22.5 23.8 0 35.9-12.7 45.7-22.8l0.1-0.1c8.2-8.5 14.2-14.7 26.6-14.7 12.5 0 18.5 6.2 26.7 14.7l0.3 0.3c9.7 10 21.9 22.6 45.5 22.6 23.8 0 36-12.7 45.7-22.8l0.1-0.1c8.2-8.5 14.2-14.7 26.7-14.7 12.4 0 18.4 6.2 26.6 14.7l0.2 0.2c9.9 10.1 22 22.7 45.6 22.7h6.1v-26.3h-6.1c-12.4 0-18.4-6.2-26.6-14.7l-0.3-0.3c-9.7-10.1-21.9-22.6-45.5-22.6-23.8 0-36 12.6-45.7 22.8l-0.1 0.1c-8.2 8.5-14.2 14.7-26.7 14.7-12.5 0-18.4-6.2-26.7-14.7l-0.2-0.2c-9.8-10.2-22-22.7-45.6-22.7-23.8 0-35.9 12.6-45.7 22.8l-0.1 0.1c-8.2 8.5-14.2 14.7-26.6 14.7-12.6 0-18.5-6.2-26.6-14.7-9.7-10.2-21.9-22.8-45.7-22.8-23.8 0-36 12.6-45.7 22.8l-0.1 0.1c-8.2 8.5-14.2 14.7-26.7 14.7-12.4 0-18.4-6.2-26.6-14.7l-0.2-0.2c-9.9-10.2-22-22.7-45.5-22.7h-6.1v26.3z"/>
		</g>
		<g id="Folder 3">
			<g id="Mask" clip-path="url(#cp10)">
				<path id="Path 36" class="s0" d="m2903.3 1219.6c-12.4 0-18.4-6.2-26.6-14.7l-0.2-0.2c-9.9-10.1-22-22.7-45.6-22.7-23.9 0-36 12.7-45.8 22.9-8.3 8.5-14.2 14.7-26.7 14.7-12.5 0-18.5-6.2-26.7-14.7l-0.3-0.3c-9.7-10-21.8-22.5-45.2-22.5-23.8 0-36 12.7-45.7 22.8l-0.1 0.1c-8.2 8.5-14.2 14.7-26.6 14.7-12.5 0-18.5-6.2-26.7-14.7l-0.3-0.3c-9.7-10-21.9-22.6-45.5-22.6-23.8 0-36 12.7-45.7 22.8l-0.1 0.1c-8.2 8.5-14.2 14.7-26.7 14.7-12.5 0-18.4-6.2-26.6-14.7l-0.2-0.2c-9.9-10.1-22-22.7-45.7-22.7h-6v26.4h6c12.5 0 18.5 6.1 26.7 14.7l0.3 0.3c9.7 10 21.9 22.6 45.5 22.6 23.8 0 36-12.7 45.7-22.8l0.1-0.1c8.2-8.6 14.2-14.7 26.7-14.7 12.5 0 18.4 6.1 26.6 14.7l0.2 0.2c9.9 10.1 22 22.7 45.7 22.7 23.8 0 35.9-12.7 45.7-22.8l0.1-0.1c8.2-8.6 14.2-14.7 26.6-14.7 12.6 0 18.5 6.1 26.6 14.7 9.7 10.1 21.9 22.8 45.7 22.8 23.8 0 36-12.7 45.7-22.8l0.1-0.2c8.2-8.5 14.2-14.6 26.7-14.6 12.4 0 18.4 6.1 26.6 14.6l0.2 0.3c9.9 10.1 22 22.7 45.5 22.7h6.1v-26.4z"/>
			</g>
			<g id="Mask" clip-path="url(#cp11)">
				<path id="Path 39" class="s1" d="m2903.3 1308.7c-12.4 0-18.4-6.2-26.6-14.7l-0.2-0.2c-9.9-10.1-22-22.7-45.6-22.7-23.9 0-36 12.7-45.8 22.9-8.3 8.5-14.2 14.7-26.7 14.7-12.5 0-18.5-6.2-26.7-14.7l-0.3-0.3c-9.7-10-21.8-22.5-45.2-22.5-23.8 0-36 12.7-45.7 22.8l-0.1 0.1c-8.2 8.5-14.2 14.7-26.6 14.7-12.5 0-18.5-6.2-26.7-14.7l-0.3-0.3c-9.7-10-21.9-22.6-45.5-22.6-23.8 0-36 12.7-45.7 22.8l-0.1 0.1c-8.2 8.5-14.2 14.7-26.7 14.7-12.5 0-18.4-6.2-26.6-14.7l-0.2-0.2c-9.9-10.1-22-22.7-45.7-22.7h-6v26.4h6c12.5 0 18.5 6.2 26.7 14.7l0.3 0.3c9.7 10 21.9 22.6 45.5 22.6 23.8 0 36-12.7 45.7-22.8l0.1-0.1c8.2-8.5 14.2-14.7 26.7-14.7 12.5 0 18.4 6.2 26.6 14.7l0.2 0.2c9.9 10.1 22 22.7 45.7 22.7 23.8 0 35.9-12.7 45.7-22.8l0.1-0.1c8.2-8.5 14.2-14.7 26.6-14.7 12.6 0 18.5 6.2 26.6 14.7 9.7 10.1 21.9 22.8 45.7 22.8 23.8 0 36-12.7 45.7-22.8l0.1-0.1c8.2-8.5 14.2-14.7 26.7-14.7 12.4 0 18.4 6.2 26.6 14.7l0.2 0.2c9.9 10.1 22 22.7 45.5 22.7h6.1v-26.4z"/>
			</g>
			<g id="Mask" clip-path="url(#cp12)">
				<path id="Path 42" class="s0" d="m2903.3 1397.7c-12.4 0-18.4-6.2-26.6-14.7l-0.2-0.2c-9.9-10.1-22-22.7-45.6-22.7-23.9 0-36 12.7-45.8 22.9-8.3 8.5-14.2 14.7-26.7 14.7-12.5 0-18.5-6.2-26.7-14.7l-0.3-0.3c-9.7-10-21.8-22.5-45.2-22.5-23.8 0-36 12.7-45.7 22.8l-0.1 0.1c-8.2 8.5-14.2 14.7-26.6 14.7-12.5 0-18.5-6.2-26.7-14.7l-0.3-0.3c-9.7-10-21.9-22.6-45.5-22.6-23.8 0-36 12.7-45.7 22.8l-0.1 0.1c-8.2 8.5-14.2 14.7-26.7 14.7-12.5 0-18.4-6.2-26.6-14.7l-0.2-0.2c-9.9-10.1-22-22.7-45.7-22.7h-6v26.4h6c12.5 0 18.5 6.2 26.7 14.7l0.3 0.3c9.7 10 21.9 22.6 45.5 22.6 23.8 0 36-12.7 45.7-22.8l0.1-0.1c8.2-8.5 14.2-14.7 26.7-14.7 12.5 0 18.4 6.2 26.6 14.7l0.2 0.2c9.9 10.1 22 22.7 45.7 22.7 23.8 0 35.9-12.7 45.7-22.8l0.1-0.1c8.2-8.5 14.2-14.7 26.6-14.7 12.6 0 18.5 6.2 26.6 14.7 9.7 10.1 21.9 22.8 45.7 22.8 23.8 0 36-12.7 45.7-22.8l0.1-0.1c8.2-8.5 14.2-14.7 26.7-14.7 12.4 0 18.4 6.2 26.6 14.7l0.2 0.2c9.9 10.1 22 22.7 45.5 22.7h6.1v-26.4z"/>
			</g>
			<g id="Mask" clip-path="url(#cp13)">
				<path id="Path 45" class="s0" d="m2756.5 1397.4c-12.5 0-18.5-6.2-26.7-14.7l-0.2-0.2c-9.8-10.1-22-22.7-45.6-22.7-23.8 0-36 12.7-45.8 22.9-8.2 8.5-14.2 14.7-26.7 14.7-12.5 0-18.4-6.2-26.6-14.7l-0.4-0.3c-9.7-10-21.7-22.5-45.2-22.5-23.8 0-35.9 12.7-45.7 22.8l-0.1 0.1c-8.2 8.5-14.2 14.7-26.6 14.7-12.5 0-18.5-6.2-26.7-14.7l-0.3-0.3c-9.7-10-21.9-22.6-45.5-22.6-23.8 0-36 12.7-45.7 22.8l-0.1 0.1c-8.2 8.5-14.2 14.7-26.7 14.7-12.4 0-18.4-6.2-26.6-14.7l-0.2-0.2c-9.9-10.1-22-22.7-45.6-22.7h-6.1v26.4h6.1c12.4 0 18.4 6.1 26.6 14.7l0.3 0.3c9.8 10 21.9 22.6 45.5 22.6 23.9 0 36-12.7 45.7-22.8l0.1-0.1c8.3-8.6 14.2-14.7 26.7-14.7 12.5 0 18.4 6.1 26.7 14.7l0.2 0.2c9.8 10.1 22 22.7 45.6 22.7 23.8 0 36-12.7 45.7-22.8l0.1-0.1c8.2-8.6 14.2-14.7 26.6-14.7 12.6 0 18.5 6.1 26.6 14.7 9.7 10.1 21.9 22.8 45.7 22.8 23.8 0 36-12.7 45.7-22.8l0.1-0.1c8.2-8.6 14.2-14.7 26.7-14.7 12.4 0 18.4 6.1 26.6 14.7l0.2 0.2c9.9 10.1 22 22.7 45.6 22.7h6v-26.4z"/>
			</g>
			<g id="Mask" clip-path="url(#cp14)">
				<path id="Path 48" class="s1" d="m2756.5 1486.5c-12.5 0-18.5-6.2-26.7-14.7l-0.2-0.2c-9.8-10.1-22-22.7-45.6-22.7-23.8 0-36 12.7-45.8 22.9-8.2 8.5-14.2 14.7-26.7 14.7-12.5 0-18.4-6.2-26.6-14.7l-0.4-0.3c-9.7-10-21.7-22.5-45.2-22.5-23.8 0-35.9 12.7-45.7 22.8l-0.1 0.1c-8.2 8.5-14.2 14.7-26.6 14.7-12.5 0-18.5-6.2-26.7-14.7l-0.3-0.3c-9.7-10-21.9-22.6-45.5-22.6-23.8 0-36 12.7-45.7 22.8l-0.1 0.1c-8.2 8.5-14.2 14.7-26.7 14.7-12.4 0-18.4-6.2-26.6-14.7l-0.2-0.2c-9.9-10.1-22-22.7-45.6-22.7h-6.1v26.4h6.1c12.4 0 18.4 6.2 26.6 14.7l0.3 0.3c9.8 10 21.9 22.6 45.5 22.6 23.9 0 36-12.7 45.7-22.8l0.1-0.1c8.3-8.5 14.2-14.7 26.7-14.7 12.5 0 18.4 6.2 26.7 14.7l0.2 0.2c9.8 10.1 22 22.7 45.6 22.7 23.8 0 36-12.7 45.7-22.8l0.1-0.1c8.2-8.5 14.2-14.7 26.6-14.7 12.6 0 18.5 6.2 26.6 14.7 9.7 10.1 21.9 22.8 45.7 22.8 23.8 0 36-12.7 45.7-22.8l0.1-0.1c8.2-8.5 14.2-14.7 26.7-14.7 12.4 0 18.4 6.2 26.6 14.7l0.2 0.2c9.9 10.1 22 22.7 45.6 22.7h6v-26.4z"/>
			</g>
			<g id="Mask" clip-path="url(#cp15)">
				<path id="Path 51" class="s0" d="m2756.5 1575.5c-12.5 0-18.5-6.2-26.7-14.7l-0.2-0.2c-9.8-10.1-22-22.7-45.6-22.7-23.8 0-36 12.7-45.8 22.9-8.2 8.5-14.2 14.7-26.7 14.7-12.5 0-18.4-6.2-26.6-14.7l-0.4-0.3c-9.7-10-21.7-22.5-45.2-22.5-23.8 0-35.9 12.7-45.7 22.8l-0.1 0.1c-8.2 8.5-14.2 14.7-26.6 14.7-12.5 0-18.5-6.2-26.7-14.7l-0.3-0.3c-9.7-10-21.9-22.6-45.5-22.6-23.8 0-36 12.7-45.7 22.8l-0.1 0.1c-8.2 8.5-14.2 14.7-26.7 14.7-12.4 0-18.4-6.2-26.6-14.7l-0.2-0.2c-9.9-10.1-22-22.7-45.6-22.7h-6.1v26.4h6.1c12.4 0 18.4 6.2 26.6 14.7l0.3 0.3c9.8 10 21.9 22.6 45.5 22.6 23.9 0 36-12.7 45.7-22.8l0.1-0.1c8.3-8.5 14.2-14.7 26.7-14.7 12.5 0 18.4 6.2 26.7 14.7l0.2 0.2c9.8 10.1 22 22.7 45.6 22.7 23.8 0 36-12.7 45.7-22.8l0.1-0.1c8.2-8.5 14.2-14.7 26.6-14.7 12.6 0 18.5 6.2 26.6 14.7 9.7 10.1 21.9 22.8 45.7 22.8 23.8 0 36-12.7 45.7-22.8l0.1-0.1c8.2-8.5 14.2-14.7 26.7-14.7 12.4 0 18.4 6.2 26.6 14.7l0.2 0.2c9.9 10.1 22 22.7 45.6 22.7h6v-26.4z"/>
			</g>
			<path id="Path 54" class="s0" d="m2610.1 1577.2c-12.5 0-18.5-6.1-26.7-14.6l-0.2-0.3c-9.8-10.1-22-22.7-45.6-22.7-23.8 0-36 12.7-45.8 23-8.2 8.5-14.2 14.6-26.7 14.6-12.4 0-18.4-6.1-26.6-14.6l-0.3-0.4c-9.8-10-21.8-22.5-45.2-22.5-23.9 0-36 12.7-45.7 22.9l-0.1 0.1c-8.3 8.5-14.2 14.6-26.7 14.6-12.5 0-18.5-6.1-26.7-14.6l-0.3-0.4c-9.7-10-21.9-22.6-45.5-22.6-23.8 0-36 12.7-45.7 22.9l-0.1 0.1c-8.2 8.5-14.2 14.6-26.6 14.6-12.5 0-18.5-6.1-26.7-14.6l-0.2-0.3c-9.8-10.1-22-22.7-45.6-22.7h-6.1v26.4h6.1c12.4 0 18.4 6.2 26.6 14.7l0.3 0.3c9.8 10 21.9 22.6 45.6 22.6 23.8 0 35.9-12.7 45.7-22.8l0.1-0.1c8.2-8.5 14.2-14.7 26.6-14.7 12.5 0 18.5 6.2 26.7 14.7l0.2 0.2c9.8 10.1 22 22.7 45.6 22.7 23.8 0 36-12.7 45.7-22.8l0.1-0.1c8.2-8.5 14.2-14.7 26.7-14.7 12.5 0 18.4 6.2 26.5 14.7 9.8 10.1 21.9 22.8 45.7 22.8 23.9 0 36-12.7 45.7-22.8l0.1-0.1c8.3-8.5 14.2-14.7 26.7-14.7 12.5 0 18.5 6.2 26.7 14.7l0.2 0.2c9.8 10.1 22 22.7 45.5 22.7h6.1v-26.4z"/>
			<path id="Path 55" class="s1" d="m2610.1 1666.4c-12.5 0-18.5-6.2-26.7-14.7l-0.2-0.2c-9.8-10.2-22-22.7-45.6-22.7-23.8 0-36 12.6-45.8 22.9-8.2 8.5-14.2 14.7-26.7 14.7-12.4 0-18.4-6.2-26.6-14.7l-0.3-0.3c-9.8-10.1-21.8-22.5-45.2-22.5-23.9 0-36 12.6-45.7 22.8l-0.1 0.1c-8.3 8.5-14.2 14.7-26.7 14.7-12.5 0-18.5-6.2-26.7-14.7l-0.3-0.3c-9.7-10.1-21.9-22.6-45.5-22.6-23.8 0-36 12.6-45.7 22.8l-0.1 0.1c-8.2 8.5-14.2 14.7-26.6 14.7-12.5 0-18.5-6.2-26.7-14.7l-0.2-0.2c-9.8-10.2-22-22.7-45.6-22.7h-6.1v26.3h6.1c12.4 0 18.4 6.2 26.6 14.7l0.3 0.3c9.8 10.1 21.9 22.6 45.6 22.6 23.8 0 35.9-12.7 45.7-22.8l0.1-0.1c8.2-8.5 14.2-14.7 26.6-14.7 12.5 0 18.5 6.2 26.7 14.7l0.2 0.2c9.8 10.2 22 22.7 45.6 22.7 23.8 0 36-12.7 45.7-22.8l0.1-0.1c8.2-8.5 14.2-14.7 26.7-14.7 12.5 0 18.4 6.2 26.5 14.7 9.8 10.1 21.9 22.8 45.7 22.8 23.9 0 36-12.7 45.7-22.8l0.1-0.1c8.3-8.5 14.2-14.7 26.7-14.7 12.5 0 18.5 6.2 26.7 14.7l0.2 0.2c9.8 10.1 22 22.7 45.5 22.7h6.1v-26.3z"/>
		</g>
		<g id="Folder 2">
			<path id="Path 65" class="s0" d="m1841 870.6c-12.5 0-18.5-6.2-26.7-14.7l-0.2-0.2c-9.8-10.1-22-22.7-45.6-22.7-23.8 0-36 12.7-45.8 22.9-8.2 8.5-14.2 14.7-26.7 14.7-12.5 0-18.4-6.2-26.6-14.7l-0.3-0.3c-9.8-10-21.8-22.5-45.3-22.5-23.8 0-35.9 12.7-45.7 22.8l-0.1 0.1c-8.2 8.5-14.2 14.7-26.6 14.7-12.5 0-18.5-6.2-26.7-14.7l-0.3-0.3c-9.7-10-21.9-22.6-45.5-22.6-23.8 0-36 12.7-45.7 22.8l-0.1 0.1c-8.2 8.5-14.2 14.7-26.7 14.7-12.4 0-18.4-6.2-26.6-14.7l-0.2-0.2c-9.9-10.1-22-22.7-45.6-22.7h-6.1v26.4h6.1c12.4 0 18.4 6.1 26.6 14.7l0.3 0.3c9.8 10 21.9 22.6 45.5 22.6 23.9 0 36-12.7 45.7-22.8l0.1-0.1c8.3-8.6 14.2-14.7 26.7-14.7 12.5 0 18.5 6.1 26.7 14.7l0.2 0.2c9.8 10.1 22 22.7 45.6 22.7 23.8 0 36-12.7 45.7-22.8l0.1-0.1c8.2-8.6 14.2-14.7 26.6-14.7 12.6 0 18.5 6.1 26.6 14.7 9.7 10.1 21.9 22.8 45.7 22.8 23.8 0 36-12.7 45.7-22.8l0.1-0.2c8.2-8.5 14.2-14.6 26.7-14.6 12.5 0 18.4 6.1 26.6 14.6l0.2 0.3c9.9 10.1 22 22.7 45.6 22.7h6v-26.4z"/>
			<path id="Path 66" class="s1" d="m1841 959.7c-12.5 0-18.5-6.2-26.7-14.7l-0.2-0.2c-9.8-10.1-22-22.7-45.6-22.7-23.8 0-36 12.7-45.8 22.9-8.2 8.5-14.2 14.7-26.7 14.7-12.5 0-18.4-6.2-26.6-14.7l-0.3-0.3c-9.8-10-21.8-22.5-45.3-22.5-23.8 0-35.9 12.7-45.7 22.8l-0.1 0.1c-8.2 8.5-14.2 14.7-26.6 14.7-12.5 0-18.5-6.2-26.7-14.7l-0.3-0.3c-9.7-10-21.9-22.6-45.5-22.6-23.8 0-36 12.7-45.7 22.8l-0.1 0.1c-8.2 8.5-14.2 14.7-26.7 14.7-12.4 0-18.4-6.2-26.6-14.7l-0.2-0.2c-9.9-10.1-22-22.7-45.6-22.7h-6.1v26.4h6.1c12.4 0 18.4 6.2 26.6 14.7l0.3 0.3c9.8 10 21.9 22.6 45.5 22.6 23.9 0 36-12.7 45.7-22.8l0.1-0.1c8.3-8.5 14.2-14.7 26.7-14.7 12.5 0 18.5 6.2 26.7 14.7l0.2 0.2c9.8 10.1 22 22.7 45.6 22.7 23.8 0 36-12.7 45.7-22.8l0.1-0.1c8.2-8.5 14.2-14.7 26.6-14.7 12.6 0 18.5 6.2 26.6 14.7 9.7 10.1 21.9 22.8 45.7 22.8 23.8 0 36-12.7 45.7-22.8l0.1-0.1c8.2-8.5 14.2-14.7 26.7-14.7 12.5 0 18.4 6.2 26.6 14.7l0.2 0.2c9.9 10.1 22 22.7 45.6 22.7h6v-26.4z"/>
			<path id="Path 67" class="s0" d="m1841 1048.7c-12.5 0-18.5-6.2-26.7-14.7l-0.2-0.2c-9.8-10.1-22-22.7-45.6-22.7-23.8 0-36 12.7-45.8 22.9-8.2 8.5-14.2 14.7-26.7 14.7-12.5 0-18.4-6.2-26.6-14.7l-0.3-0.3c-9.8-10-21.8-22.5-45.3-22.5-23.8 0-35.9 12.7-45.7 22.8l-0.1 0.1c-8.2 8.5-14.2 14.7-26.6 14.7-12.5 0-18.5-6.2-26.7-14.7l-0.3-0.3c-9.7-10-21.9-22.6-45.5-22.6-23.8 0-36 12.7-45.7 22.8l-0.1 0.1c-8.2 8.5-14.2 14.7-26.7 14.7-12.4 0-18.4-6.2-26.6-14.7l-0.2-0.2c-9.9-10.1-22-22.7-45.6-22.7h-6.1v26.4h6.1c12.4 0 18.4 6.2 26.6 14.7l0.3 0.3c9.8 10 21.9 22.6 45.5 22.6 23.9 0 36-12.7 45.7-22.8l0.1-0.1c8.3-8.5 14.2-14.7 26.7-14.7 12.5 0 18.5 6.2 26.7 14.7l0.2 0.2c9.8 10.1 22 22.7 45.6 22.7 23.8 0 36-12.7 45.7-22.8l0.1-0.1c8.2-8.5 14.2-14.7 26.6-14.7 12.6 0 18.5 6.2 26.6 14.7 9.7 10.1 21.9 22.8 45.7 22.8 23.8 0 36-12.7 45.7-22.8l0.1-0.1c8.2-8.5 14.2-14.7 26.7-14.7 12.5 0 18.4 6.2 26.6 14.7l0.2 0.2c9.9 10.1 22 22.7 45.6 22.7h6v-26.4z"/>
			<path id="Path 68" class="s0" d="m1694.1 1048.4c-12.5 0-18.5-6.2-26.7-14.7l-0.2-0.2c-9.8-10.1-22-22.7-45.6-22.7-23.8 0-36 12.7-45.8 22.9-8.2 8.5-14.2 14.7-26.7 14.7-12.4 0-18.4-6.2-26.6-14.7l-0.3-0.3c-9.8-10-21.8-22.5-45.2-22.5-23.9 0-36 12.7-45.7 22.8l-0.1 0.1c-8.3 8.5-14.2 14.7-26.7 14.7-12.5 0-18.5-6.2-26.7-14.7l-0.3-0.3c-9.7-10-21.9-22.6-45.5-22.6-23.8 0-36 12.7-45.7 22.8l-0.1 0.1c-8.2 8.5-14.2 14.7-26.6 14.7-12.5 0-18.5-6.2-26.7-14.7l-0.2-0.2c-9.8-10.1-22-22.7-45.6-22.7h-6.1v26.4h6.1c12.4 0 18.4 6.1 26.6 14.7l0.3 0.3c9.8 10 21.9 22.6 45.6 22.6 23.8 0 35.9-12.7 45.7-22.8l0.1-0.1c8.2-8.6 14.2-14.7 26.6-14.7 12.5 0 18.5 6.1 26.7 14.7l0.2 0.2c9.8 10.1 22 22.7 45.6 22.7 23.8 0 36-12.7 45.7-22.8l0.1-0.1c8.2-8.6 14.2-14.7 26.7-14.7 12.5 0 18.4 6.1 26.5 14.7 9.8 10.1 21.9 22.8 45.7 22.8 23.9 0 36-12.7 45.7-22.8l0.1-0.1c8.3-8.6 14.2-14.7 26.7-14.7 12.5 0 18.5 6.1 26.7 14.7l0.2 0.2c9.8 10.1 22 22.7 45.5 22.7h6.1v-26.4z"/>
			<path id="Path 69" class="s1" d="m1694.1 1137.5c-12.5 0-18.5-6.2-26.7-14.7l-0.2-0.2c-9.8-10.1-22-22.7-45.6-22.7-23.8 0-36 12.7-45.8 22.9-8.2 8.5-14.2 14.7-26.7 14.7-12.4 0-18.4-6.2-26.6-14.7l-0.3-0.3c-9.8-10-21.8-22.5-45.2-22.5-23.9 0-36 12.7-45.7 22.8l-0.1 0.1c-8.3 8.5-14.2 14.7-26.7 14.7-12.5 0-18.5-6.2-26.7-14.7l-0.3-0.3c-9.7-10-21.9-22.6-45.5-22.6-23.8 0-36 12.7-45.7 22.8l-0.1 0.1c-8.2 8.5-14.2 14.7-26.6 14.7-12.5 0-18.5-6.2-26.7-14.7l-0.2-0.2c-9.8-10.1-22-22.7-45.6-22.7h-6.1v26.4h6.1c12.4 0 18.4 6.2 26.6 14.7l0.3 0.3c9.8 10 21.9 22.6 45.6 22.6 23.8 0 35.9-12.7 45.7-22.8l0.1-0.1c8.2-8.5 14.2-14.7 26.6-14.7 12.5 0 18.5 6.2 26.7 14.7l0.2 0.2c9.8 10.1 22 22.7 45.6 22.7 23.8 0 36-12.7 45.7-22.8l0.1-0.1c8.2-8.5 14.2-14.7 26.7-14.7 12.5 0 18.4 6.2 26.5 14.7 9.8 10.1 21.9 22.8 45.7 22.8 23.9 0 36-12.7 45.7-22.8l0.1-0.1c8.3-8.5 14.2-14.7 26.7-14.7 12.5 0 18.5 6.2 26.7 14.7l0.2 0.2c9.8 10.1 22 22.7 45.5 22.7h6.1v-26.4z"/>
			<path id="Path 70" class="s0" d="m1694.1 1226.5c-12.5 0-18.5-6.2-26.7-14.7l-0.2-0.2c-9.8-10.1-22-22.7-45.6-22.7-23.8 0-36 12.7-45.8 22.9-8.2 8.5-14.2 14.7-26.7 14.7-12.4 0-18.4-6.2-26.6-14.7l-0.3-0.3c-9.8-10-21.8-22.5-45.2-22.5-23.9 0-36 12.7-45.7 22.8l-0.1 0.1c-8.3 8.5-14.2 14.7-26.7 14.7-12.5 0-18.5-6.2-26.7-14.7l-0.3-0.3c-9.7-10-21.9-22.6-45.5-22.6-23.8 0-36 12.7-45.7 22.8l-0.1 0.1c-8.2 8.5-14.2 14.7-26.6 14.7-12.5 0-18.5-6.2-26.7-14.7l-0.2-0.2c-9.8-10.1-22-22.7-45.6-22.7h-6.1v26.4h6.1c12.4 0 18.4 6.2 26.6 14.7l0.3 0.3c9.8 10 21.9 22.6 45.6 22.6 23.8 0 35.9-12.7 45.7-22.8l0.1-0.1c8.2-8.5 14.2-14.7 26.6-14.7 12.5 0 18.5 6.2 26.7 14.7l0.2 0.2c9.8 10.1 22 22.7 45.6 22.7 23.8 0 36-12.7 45.7-22.8l0.1-0.1c8.2-8.5 14.2-14.7 26.7-14.7 12.5 0 18.4 6.2 26.5 14.7 9.8 10.1 21.9 22.8 45.7 22.8 23.9 0 36-12.7 45.7-22.8l0.1-0.1c8.3-8.5 14.2-14.7 26.7-14.7 12.5 0 18.5 6.2 26.7 14.7l0.2 0.2c9.8 10.1 22 22.7 45.5 22.7h6.1v-26.4z"/>
		</g>
	</g>
</svg>